<svg xmlns="http://www.w3.org/2000/svg" xmlns:xlink="http://www.w3.org/1999/xlink" preserveAspectRatio="xMidYMid" width="96" height="119" viewBox="0 0 96 119">
  <defs>
    <style>
      .cls-1 {
        fill: #91c9e0;
      }

      .cls-1, .cls-2 {
        stroke: #46b6e3;
        stroke-width: 2px;
        fill-rule: evenodd;
      }

      .cls-2 {
        fill: #fff;
      }
    </style>
  </defs>
  <g>
    <path d="M48.000,26.915 C73.957,26.915 95.000,41.319 95.000,59.087 C95.000,76.855 73.957,91.259 48.000,91.259 C22.043,91.259 1.000,76.855 1.000,59.087 C1.000,41.319 22.043,26.915 48.000,26.915 Z" class="cls-1"/>
    <path d="M43.190,1.010 C43.190,1.010 41.532,20.440 43.190,35.419 C43.283,36.258 43.945,38.664 44.683,40.771 C46.929,47.187 59.241,55.576 62.601,64.475 C66.625,75.134 62.601,85.120 62.601,85.120 L51.402,118.000 C51.402,118.000 53.091,109.255 53.642,100.413 C53.345,105.178 54.196,94.562 53.642,83.591 C53.515,81.083 51.900,79.062 49.909,76.709 C39.842,64.809 35.276,58.298 33.485,52.241 C31.375,45.108 33.203,38.792 35.724,27.773 C38.749,14.556 43.190,1.010 43.190,1.010 Z" class="cls-2"/>
  </g>
</svg>
